<svg width="17.000000" height="17.000000" viewBox="0 0 17 17" fill="none" xmlns="http://www.w3.org/2000/svg" xmlns:xlink="http://www.w3.org/1999/xlink"><path id="CODE" d="M5.29297 14.0703C5.0166 14.3887 4.65234 14.5508 4.22559 14.5508C3.39648 14.5508 2.69531 13.9844 2.69531 12.8848C2.69531 11.8008 3.42383 11.1816 4.25293 11.1816C4.67773 11.1816 5.02051 11.3789 5.24414 11.6055L4.83594 12.1016C4.66895 11.9531 4.49805 11.8496 4.26562 11.8496C3.84473 11.8496 3.49902 12.2246 3.49902 12.8574C3.49902 13.5039 3.7959 13.8789 4.25684 13.8789C4.52051 13.8789 4.72559 13.748 4.87988 13.582L5.29297 14.0703ZM8.4248 12.8496C8.4248 13.9141 7.81934 14.5508 6.92871 14.5508C6.03809 14.5508 5.43262 13.9141 5.43262 12.8496C5.43262 11.7832 6.03809 11.1816 6.92871 11.1816C7.81934 11.1816 8.4248 11.7891 8.4248 12.8496ZM9.03027 14.4902L10.0137 14.4902C10.9658 14.4902 11.623 13.9785 11.623 12.8496C11.623 11.7188 10.9658 11.2383 9.96973 11.2383L9.03027 11.2383L9.03027 14.4902ZM14.3477 14.4902L12.2285 14.4902L12.2285 11.2383L14.2998 11.2383L14.2998 11.8887L13.0137 11.8887L13.0137 12.4902L14.1055 12.4902L14.1055 13.1445L13.0137 13.1445L13.0137 13.8359L14.3477 13.8359L14.3477 14.4902ZM6.23633 12.8496C6.23633 13.4785 6.49902 13.8789 6.92871 13.8789C7.3584 13.8789 7.62598 13.4785 7.62598 12.8496C7.62598 12.2207 7.3584 11.8496 6.92871 11.8496C6.49902 11.8496 6.23633 12.2207 6.23633 12.8496ZM9.81543 13.8613L9.81543 11.8633L9.9209 11.8633C10.4473 11.8633 10.8193 12.0762 10.8193 12.8496C10.8193 13.6211 10.4473 13.8613 9.9209 13.8613L9.81543 13.8613Z" fill-rule="evenodd" fill="#4D6BFE"></path><path id="path" d="M13.7393 2.97461C13.625 2.91797 13.5752 3.02539 13.5078 3.08008C13.4844 3.09766 13.4658 3.11914 13.4463 3.14062C13.2783 3.32031 13.0811 3.4375 12.8252 3.42383C12.4502 3.40234 12.1299 3.51953 11.8467 3.80469C11.7871 3.45312 11.5869 3.24219 11.2832 3.10742C11.124 3.03711 10.9629 2.9668 10.8516 2.81445C10.7734 2.70703 10.752 2.58594 10.7129 2.4668C10.6885 2.39453 10.6641 2.32031 10.5801 2.30859C10.4902 2.29492 10.4551 2.36914 10.4199 2.43359C10.2783 2.68945 10.2236 2.97461 10.2285 3.26172C10.2412 3.9082 10.5146 4.42383 11.0596 4.78906C11.1221 4.83203 11.1377 4.87305 11.1182 4.93555C11.0811 5.06055 11.0371 5.18359 10.998 5.31055C10.9736 5.39062 10.9365 5.4082 10.8496 5.37305C10.5508 5.24805 10.292 5.06445 10.0645 4.8418C9.67676 4.46875 9.32617 4.05664 8.88965 3.73438C8.78711 3.66016 8.68457 3.58984 8.57812 3.52344C8.13281 3.0918 8.63672 2.73828 8.75391 2.69531C8.87598 2.65234 8.7959 2.50195 8.40137 2.50195C8.00684 2.50391 7.64648 2.63672 7.18652 2.81055C7.11914 2.83789 7.04883 2.85742 6.97559 2.87305C6.55859 2.79297 6.125 2.77539 5.67188 2.82617C4.82031 2.92188 4.13867 3.32227 3.63867 4.00781C3.03711 4.83203 2.89551 5.76758 3.06836 6.74414C3.25098 7.77148 3.77832 8.62305 4.58789 9.28906C5.42871 9.98047 6.39551 10.3184 7.49902 10.2539C8.16992 10.2148 8.91602 10.125 9.75781 9.41602C9.9707 9.52148 10.1934 9.5625 10.5625 9.5957C10.8477 9.62109 11.1221 9.58008 11.334 9.53711C11.667 9.4668 11.6436 9.16016 11.5234 9.10352C10.5488 8.65234 10.7627 8.83594 10.5684 8.6875C11.0635 8.10352 11.8096 7.49805 12.1016 5.5332C12.125 5.37695 12.1055 5.2793 12.1016 5.15234C12.0996 5.07617 12.1172 5.04492 12.2061 5.03711C12.4502 5.00781 12.6875 4.94141 12.9043 4.82227C13.5361 4.48047 13.791 3.91602 13.8506 3.23828C13.8594 3.13477 13.8496 3.0293 13.7393 2.97461ZM8.2373 9.0625C7.29297 8.32227 6.83398 8.07812 6.64551 8.08984C6.46875 8.09961 6.5 8.30078 6.53906 8.43359C6.58008 8.5625 6.63281 8.65234 6.70703 8.76562C6.75879 8.8418 6.79395 8.95312 6.65625 9.03711C6.35156 9.22461 5.82227 8.97461 5.79785 8.96289C5.18262 8.60156 4.66797 8.125 4.30469 7.47266C3.95508 6.8457 3.75195 6.17188 3.71777 5.45312C3.70898 5.28125 3.76074 5.21875 3.93359 5.1875C4.16211 5.14453 4.39746 5.13672 4.625 5.16992C5.58887 5.31055 6.41016 5.74023 7.09766 6.41992C7.49023 6.80664 7.78809 7.26953 8.09375 7.7207C8.41895 8.20117 8.76953 8.6582 9.21484 9.0332C9.37207 9.16602 9.49805 9.26562 9.61816 9.33984C9.25586 9.37891 8.65137 9.38867 8.2373 9.0625ZM8.68945 6.16211C8.68945 6.08398 8.75195 6.02344 8.8291 6.02344C8.84766 6.02344 8.86328 6.02734 8.87695 6.03125C8.89648 6.03906 8.91406 6.04883 8.92871 6.06641C8.95312 6.08984 8.96777 6.125 8.96777 6.16211C8.96777 6.23828 8.90527 6.30078 8.82812 6.30078C8.75 6.30078 8.68945 6.23828 8.68945 6.16211ZM10.0957 6.88086C10.0059 6.91797 9.91504 6.94922 9.8291 6.95312C9.69434 6.95898 9.54785 6.9043 9.46777 6.83789C9.34375 6.73438 9.25586 6.67773 9.21875 6.49609C9.20312 6.41992 9.21191 6.30078 9.22559 6.23242C9.25781 6.08398 9.22266 5.99023 9.11816 5.9043C9.0332 5.83398 8.9248 5.81445 8.80664 5.81445C8.7627 5.81445 8.72168 5.79492 8.69141 5.7793C8.6416 5.75586 8.60156 5.69336 8.64062 5.61914C8.65234 5.59375 8.71289 5.53516 8.72656 5.52344C8.8877 5.43359 9.07324 5.46289 9.24512 5.53125C9.4043 5.5957 9.52441 5.71484 9.69824 5.88281C9.875 6.08594 9.90625 6.14258 10.0078 6.29492C10.0869 6.41406 10.1592 6.53711 10.209 6.67773C10.2393 6.76562 10.2002 6.83594 10.0957 6.88086Z" fill-rule="nonzero" fill="#4D6BFE"></path></svg>